<?xml version="1.0" encoding="UTF-8" standalone="no"?>
<svg xmlns:sketch="http://www.bohemiancoding.com/sketch/ns" xmlns="http://www.w3.org/2000/svg" height="18px" width="18px" version="1.1" xmlns:xlink="http://www.w3.org/1999/xlink" viewBox="0 0 18 18"><!-- Generator: Sketch 3.5.2 (25235) - http://www.bohemiancoding.com/sketch -->
 <title>icon-facebook</title>
 <desc>Created with Sketch.</desc>
 <defs>
  <path id="path-1" d="m0.0040449 0.0070787h17.989v17.993h-17.989"/>
 </defs>
 <g id="Assets" fill-rule="evenodd" sketch:type="MSPage" fill="none">
  <g id="Social-Media-Icons" transform="translate(-80 -85)" sketch:type="MSArtboardGroup">
   <g id="icon-facebook" transform="translate(80 85)" sketch:type="MSLayerGroup">
    <mask id="mask-2" sketch:name="Clip 2" fill="white">
     <use xlink:href="#path-1"/>
    </mask>
    <path id="Fill-1" sketch:type="MSShapeGroup" fill="#fff" mask="url(#mask-2)" d="m17 0.0070787h-16.007c-0.54853 0-0.993 0.44454-0.993 0.99312v16.007c0 0.548 0.44447 0.993 0.99303 0.993h8.6175v-6.968h-2.3448v-2.7153h2.3448v-2.0026c0-2.324 1.4195-3.5894 3.4925-3.5894 0.993 0 1.847 0.0739 2.095 0.107v2.4286l-1.438 0.0007c-1.127 0-1.345 0.5357-1.345 1.322v1.7337h2.689l-0.35 2.7153h-2.339v6.968h4.585c0.548 0 0.993-0.445 0.993-0.993v-16.007c0-0.54838-0.445-0.99292-0.993-0.99292"/>
   </g>
  </g>
 </g>
</svg>
