<svg xmlns="http://www.w3.org/2000/svg" width="18" height="18"><title>icon-linkedin</title><desc>Created with Sketch.</desc><g fill="none"><g fill="#fff"><g><g><path d="M16.36 0H1.3C.58 0 0 .57 0 1.27V16.4c0 .7.58 1.27 1.3 1.27h15.06c.73 0 1.3-.57 1.3-1.27V1.27c0-.7-.57-1.27-1.3-1.27zM3.93 2.43c.84 0 1.52.68 1.52 1.52s-.68 1.52-1.52 1.52S2.4 4.8 2.4 3.95s.7-1.52 1.53-1.52zm-1.3 4.2h2.6v8.43h-2.6V6.63zm4.26 0h2.5v1.15h.04c.35-.67 1.2-1.36 2.48-1.36 2.65 0 3.14 1.74 3.14 4v4.64h-2.62v-4.1c0-.98-.02-2.24-1.36-2.24C9.7 8.72 9.5 9.8 9.5 10.9v4.16H6.9V6.63z"/></g></g></g></g></svg>