<svg xmlns="http://www.w3.org/2000/svg" width="18" height="15"><title>icon-twitter</title><desc>Created with Sketch.</desc><g fill="none"><g fill="#fff"><path d="M18 1.73c-.66.3-1.37.5-2.12.58.76-.44 1.35-1.17 1.62-2.03-.7.42-1.5.73-2.34.9C14.48.45 13.52 0 12.46 0c-2.04 0-3.7 1.65-3.7 3.7 0 .28.04.56.1.83C5.8 4.38 3.06 2.9 1.26.68c-.32.54-.5 1.18-.5 1.85 0 1.28.65 2.4 1.64 3.08-.6 0-1.18-.18-1.68-.46 0 .02 0 .04 0 .05C.72 6.97 2 8.46 3.7 8.8c-.32.1-.65.14-1 .14-.23 0-.46-.02-.68-.06.47 1.46 1.83 2.53 3.45 2.56-1.27 1-2.86 1.58-4.6 1.58-.3 0-.58-.02-.87-.05 1.63 1.05 3.58 1.66 5.66 1.66 6.8 0 10.5-5.63 10.5-10.5 0-.17 0-.33 0-.5.72-.5 1.34-1.16 1.84-1.9"/></g></g></svg>