<svg xmlns="http://www.w3.org/2000/svg" width="18" height="13"><title>icon-youtube</title><desc>Created with Sketch.</desc><g fill="none"><g><g><path fill="#420000" d="M7.14 3.6l4.26 2.85.6-.3L7.14 3.6z" opacity=".12"/><g fill="#fff"><path d="M17.8 2.73s-.17-1.24-.7-1.78C16.4.23 15.63.23 15.3.2 12.77 0 9 0 9 0S5.22 0 2.7.2C2.37.22 1.6.22.9.94.38 1.5.2 2.73.2 2.73S0 4.2 0 5.63V7c0 1.46.2 2.9.2 2.9s.17 1.25.7 1.8c.7.7 1.6.7 2 .77 1.43.13 6.1.18 6.1.18s3.78 0 6.3-.2c.34-.03 1.1-.04 1.8-.75.53-.55.7-1.8.7-1.8S18 8.47 18 7V5.64c0-1.45-.2-2.9-.2-2.9zM7.15 8.66V3.6L12 6.15 7.14 8.66z"/></g></g></g></g></svg>